# xmcd
#
# Track frame offsets:
#	150
#	13987
#	27712
#	38850
#	56100
#	78637
#	92100
#	104100
#	124125
#	143062
#	157912
#	172650
#
# Disc length: 2549 seconds
# Revision: 0
# Processed by: cddbd v1.5.2PL0 Copyright (c) Steve Scherf et al.
# Submitted via: dBpowerAMP V12.0
#
DISCID=a309f30c
DTITLE=Northern Lights - New Moon
DYEAR=2005
DGENRE=Country
TTITLE0=Oh, Lady Be Good
TTITLE1=Lonely Moon
TTITLE2=Listen to the Radio
TTITLE3=Empty Pages
TTITLE4=Twenty Six Daughters
TTITLE5=Bury Me Beneath the Willow
TTITLE6=Sit Down Servant
TTITLE7=Dusty Miller/Ride the Wild Turkey
TTITLE8=Blue Chalk
TTITLE9=California Blues
TTITLE10=Orphan Girl
TTITLE11=Baby I Love You
EXTD=
EXTT0=
EXTT1=
EXTT2=
EXTT3=
EXTT4=
EXTT5=
EXTT6=
EXTT7=
EXTT8=
EXTT9=
EXTT10=
EXTT11=
PLAYORDER=
